<?xml version="1.0" encoding="UTF-8" standalone="no"?>
<svg
   xmlns:dc="http://purl.org/dc/elements/1.1/"
   xmlns:cc="http://creativecommons.org/ns#"
   xmlns:rdf="http://www.w3.org/1999/02/22-rdf-syntax-ns#"
   xmlns:svg="http://www.w3.org/2000/svg"
   xmlns="http://www.w3.org/2000/svg"
   xmlns:sodipodi="http://sodipodi.sourceforge.net/DTD/sodipodi-0.dtd"
   xmlns:inkscape="http://www.inkscape.org/namespaces/inkscape"
   version="1.1"
   width="130"
   height="50"
   id="svg3164"
   inkscape:version="0.48.5 r10040"
   sodipodi:docname="battery.svg">
  <metadata
     id="metadata3175">
    <rdf:RDF>
      <cc:Work
         rdf:about="">
        <dc:format>image/svg+xml</dc:format>
        <dc:type
           rdf:resource="http://purl.org/dc/dcmitype/StillImage" />
      </cc:Work>
    </rdf:RDF>
  </metadata>
  <defs
     id="defs3173" />
  <sodipodi:namedview
     pagecolor="#ffffff"
     bordercolor="#666666"
     borderopacity="1"
     objecttolerance="10"
     gridtolerance="10"
     guidetolerance="10"
     inkscape:pageopacity="0"
     inkscape:pageshadow="2"
     inkscape:window-width="1366"
     inkscape:window-height="721"
     id="namedview3171"
     showgrid="false"
     fit-margin-top="0"
     fit-margin-left="0"
     fit-margin-right="0"
     fit-margin-bottom="0"
     inkscape:zoom="5.3318486"
     inkscape:cx="76.328411"
     inkscape:cy="22.997377"
     inkscape:window-x="-2"
     inkscape:window-y="-3"
     inkscape:window-maximized="1"
     inkscape:current-layer="g3166" />
  <g
     id="g3166"
     transform="translate(0,-200)">
    <rect
       id="level"
       width="107"
       height="36"
       rx="5"
       ry="5"
       x="7"
       y="207"
       style="fill:#00ff00;stroke:none" />
    <path
       d="m 8,200 c -4.432,0 -8,3.568 -8,8 l 0,34 c 0,4.432 3.568,8 8,8 l 105.2,0 c 4.432,0 7.57981,-3.58796 8,-8 l 0,-4.2 4.8,0 c 2.216,0 4,-1.784 4,-4 l 0,-17.6 c 0,-2.216 -1.784,-4 -4,-4 l -4.8,0 0,-4.2 c 0,-4.432 -3.568,-8 -8,-8 z m 3,5 99.2,0 c 3.324,0 6,2.676 6,6 l 0,28 c 0,3.324 -2.676,6 -6,6 L 11,245 c -3.324,0 -6,-2.676 -6,-6 l 0,-28 c 0,-3.324 2.676,-6 6,-6 z"
       style="fill:#000000;stroke:none"
       id="path3169"
       inkscape:connector-curvature="0"
       sodipodi:nodetypes="sssssscsssscssssssssssss" />
  </g>
</svg>
